HIERARCHY
ROOT base
{
	OFFSET 0.0 0.0 0.0
	CHANNELS 6 Xposition Yposition Zposition Zrotation Yrotation Xrotation
	JOINT root
	{
		OFFSET 0 0 0
		CHANNELS 6 Xposition Yposition Zposition Zrotation Yrotation Xrotation
		JOINT chest
		{
			OFFSET 0 4.72302 0
			CHANNELS 3 Zrotation Yrotation Xrotation
			JOINT neck
			{
				OFFSET 0 4.47788 0
				CHANNELS 3 Zrotation Yrotation Xrotation
				End Site
				{
					OFFSET 0.0 0.0 0.0
				}
			}
			JOINT right_shoulder
			{
				OFFSET -0.481 4.87 3.6622
				CHANNELS 3 Zrotation Yrotation Xrotation
				JOINT right_elbow
				{
					OFFSET 0 -5.49576 0
					CHANNELS 3 Zrotation Yrotation Xrotation
					JOINT right_wrist
					{
						OFFSET 0 -5.17894 0
						CHANNELS 3 Zrotation Yrotation Xrotation
						End Site
						{
							OFFSET 0.0 0.0 0.0
						}
					}
				}
			}
			JOINT left_shoulder
			{
				OFFSET -0.481 4.87 -3.6622
				CHANNELS 3 Zrotation Yrotation Xrotation
				JOINT left_elbow
				{
					OFFSET 0 -5.49576 0
					CHANNELS 3 Zrotation Yrotation Xrotation
					JOINT left_wrist
					{
						OFFSET 0 -5.17894 0
						CHANNELS 3 Zrotation Yrotation Xrotation
						End Site
						{
							OFFSET 0.0 0.0 0.0
						}
					}
				}
			}
		}
		JOINT right_hip
		{
			OFFSET 0 0 1.69774
			CHANNELS 3 Zrotation Yrotation Xrotation
			JOINT right_knee
			{
				OFFSET 0 -8.43092 0
				CHANNELS 3 Zrotation Yrotation Xrotation
				JOINT right_ankle
				{
					OFFSET 0 -8.1974 0
					CHANNELS 3 Zrotation Yrotation Xrotation
					End Site
					{
						OFFSET 0.0 0.0 0.0
					}
				}
			}
		}
		JOINT left_hip
		{
			OFFSET 0 0 -1.69774
			CHANNELS 3 Zrotation Yrotation Xrotation
			JOINT left_knee
			{
				OFFSET 0 -8.43092 0
				CHANNELS 3 Zrotation Yrotation Xrotation
				JOINT left_ankle
				{
					OFFSET 0 -8.1974 0
					CHANNELS 3 Zrotation Yrotation Xrotation
					End Site
					{
						OFFSET 0.0 0.0 0.0
					}
				}
			}
		}
	}
	JOINT red_arrow
	{
		OFFSET 0 0 0
		CHANNELS 3 Zrotation Yrotation Xrotation
		End Site
		{
			OFFSET 0.0 0.0 0.0
		}
	}
	JOINT blue_arrow
	{
		OFFSET 0 0 0
		CHANNELS 3 Zrotation Yrotation Xrotation
		End Site
		{
			OFFSET 0.0 0.0 0.0
		}
	}
}
MOTION
Frames: 15
Frame Time: 0.0333333333333333
189.149554485083 0 -58.2450404912233 0 14.0769363373873 0 0 16.8847038030624 0 -6.01381589331652 6.66359660197876 2.68587014097871 -1.28277582650047 2.48910271742949 1.9302624793185 -0.972101344175194 0.889804559533245 0.866539552780257 -16.3690210007643 -14.2208154103016 -10.6420804163723 5.02319560385465 0 0 0 0 0 11.6091527967801 -36.1743055647935 23.6079517397115 37.403809781904 0 0 0 0 0 41.6242991222664 -9.61387079641661 -9.36795836779786 -22.8136787712997 0 0 -2.4619018642201 -6.69060144123698 -4.47878319047318 -10.6756550230435 8.32479191970941 -4.6830040144697 0.00105303307610548 0 0 16.3070531961559 -16.023718579906 -1.26279139664428 0 0 0 0 0 0
189.889646053314 0 -58.2729464132339 0 14.4358896657534 0 0 16.6849554657936 0 -7.21198791986041 6.76665790629222 2.22410610708594 -2.97526618265878 2.55896620117473 2.5790299254824 -1.61448954089263 2.51557792138738 1.29734661703299 -16.5126199747983 -14.515828058192 -10.4986404272774 4.82476195987967 0 0 0 0 0 12.9150094376927 -37.3308436031592 23.6158051665663 39.4011005291883 0 0 0 0 0 39.2833031027416 -11.2779089534072 -7.17098063891898 -15.7351592909909 0 0 -5.37297164925474 -3.7699867187814 -3.00739497256419 -11.8223136457744 9.15760886708886 -3.39878007184258 0.00102162771288931 0 0 19.0770169920161 -16.9110069245433 -2.88793426509133 0 0 0 0 0 0
190.702634915709 0 -58.2581334304064 0 14.769089481199 0 0 16.4487978219986 0 -8.57693126647906 6.26056141488104 1.01115102818619 -4.15680192033638 2.97422685830666 3.8292680957373 -2.16402661399484 4.03264824981277 1.37256244149929 -16.1980555620007 -14.1709740557394 -10.6176150428242 5.05192337950372 0 0 0 0 0 13.7971038644128 -37.8103833959577 23.1819012703093 40.8389270664623 0 0 0 0 0 36.2579422878794 -11.2895430214019 -3.7726730929893 -10.6899256548924 0 0 -14.604030394634 -1.26738255207475 -3.81131091353276 -12.5953519821889 10.4043617614305 -1.20875526663091 -0.5837349137 0 0 22.3680686665632 -17.2200213827655 -4.69992851298187 0 0 0 0 0 0
191.432575085759 0 -58.0822062760592 0 14.9154460900393 0 0 16.4959217786789 0 -10.2989837153599 2.73604093016387 -2.14503041498079 -4.4023566232627 3.75355687561691 5.61739927232906 -3.79488390778945 4.94491505146422 1.21731182812856 -14.7174877838537 -12.5325585517329 -10.7924270089158 5.591712802723 0 0 0 0 0 13.7626538581073 -36.9858700882336 22.1388834477968 40.8995996368595 0 0 0 0 0 35.7382089382894 -10.3613676323568 2.03067397372858 -12.1913779656059 0 0 -13.0586987949706 -1.81475437583207 -4.66075435645504 -10.7302052184754 12.6637131111267 2.93959088227443 -4.03474599509603 0 0 21.5862754104138 -15.8157628057832 -4.54095745692515 0 0 0 0 0 0
192.20276376009 0 -58.1101054891944 0 14.9500980367317 0 0 16.6782470345497 0 -10.3801883797497 0.647612640184138 -2.8876009500161 -3.58452495039098 2.59436914865945 5.74685586848792 -4.44605068010019 3.55180757406497 0.360351305265866 -13.9819220236846 -10.4537607988431 -9.87960724201588 6.29445815982092 0 0 0 0 0 11.7746197545315 -34.4874828436623 20.5524021876057 39.2087624021607 0 0 0 0 0 33.2432168586119 -9.24640022784289 4.5049970039119 -12.7276664899888 0 0 -10.2018750334232 -1.65946766757475 -5.02690431119537 -8.13334028724486 12.0750181546999 4.45289164637381 -13.1593096860978 0 0 16.0581823603232 -13.0735541743252 -1.76042723967679 0 0 0 0 0 0
193.018778011203 0 -58.2051652058959 0 14.8508474314698 0 0 16.8307909607887 0 -9.22796886469695 -1.86137344692245 -3.1600544766373 -2.71162390495243 -0.395132712501525 6.03867687106225 -3.82776547710254 2.16613128822268 -0.18922489733935 -12.701803485923 -1.23927693664615 -9.14243730593279 7.24417803466462 0 0 0 0 0 8.58088354222654 -27.7725260057547 19.763470117448 36.7425620928821 0 0 0 0 0 30.1313177274179 -7.20519044889892 6.46265138622051 -14.3999529309018 0 0 -6.6953094906403 -1.43283271054417 -5.1973218667172 -5.38713714666186 11.038921610972 5.10234394693457 -24.1852336906043 0 0 7.15351382597502 -12.6653077621945 2.31374978850073 0 0 0 0 0 0
193.823058718443 0 -58.2774815559387 0 14.659047029326 0 0 16.9537499189377 0 -7.71719437772485 -3.61128959693862 -3.57055904099601 -1.54544245467728 -2.95570587129522 5.67111684904328 -2.89222580951084 1.17611677281297 -0.594245294369876 -11.5676887635479 4.89178487590473 -8.74140159789019 8.37058295050551 0 0 0 0 0 6.09709487869141 -22.6189661712819 18.1799129453695 34.1167573381733 0 0 0 0 0 26.5592059181922 -5.45301595553542 8.06802898651764 -15.652544737885 0 0 -3.4091580681643 -1.34346172176054 -5.37099983864066 -1.48806530105098 9.53022958887514 6.2051359854266 -35.5492494977054 0 0 -1.65093017609241 -13.152849982176 5.63069827762114 0 0 0 0 0 0
194.581917379796 0 -58.3514890477061 0 14.4331827250705 0 0 17.0505616545677 0 -6.33996313956638 -4.26527335091717 -3.90993722440435 0.138464559996476 -5.05480666589965 5.29824301149395 -1.95824219348775 0.103272676720197 -1.27049472198991 -10.3616358257174 9.29701014400353 -9.01280271816068 9.45751961822747 0 0 0 0 0 3.77413970101739 -17.7162002337182 16.5505596820689 31.066333383143 0 0 0 0 0 23.0511787039219 -4.88571705589782 8.90729530168782 -16.6760417548222 0 0 -0.304092755655193 -0.846371738420311 -5.57614714775594 3.45327145018722 8.31993466977955 8.1626147831686 -47.319314928322 0 0 -8.37329844318999 -12.5483490788037 7.07745900058753 0 0 0 0 0 0
195.264506788552 0 -58.4584569841623 0 14.1541294428667 0 0 17.1230227947235 0 -5.27490483505977 -5.27968581774701 -3.91813790342474 1.85960750116504 -5.8975859014308 5.06346929314654 -1.06191373821691 -0.772099862438136 -1.6425015248661 -8.91382252845264 12.6712161716125 -9.60123897244334 10.3309155441909 0 0 0 0 0 1.57448031140786 -13.2147696555871 15.0871147541426 28.0148644091698 0 0 0 0 0 20.0007926833702 -4.12930505414782 9.28665270586846 -17.3835793433966 0 0 2.33619021212735 0.0380997029704932 -5.64192219561014 8.6014906433491 6.84612202263912 9.69226672961057 -59.0938404724665 0 0 -12.7009593656359 -11.3796332503688 7.17781463097566 0 0 0 0 0 0
195.872646752 0 -58.5751653268933 0 13.8171535876342 0 0 17.1873323917389 0 -4.54943036166973 -6.38253532745834 -3.78183754523968 3.02546369058092 -6.23302999997343 4.84264868208974 -0.326599502620588 -1.42650563944901 -1.9072175951927 -7.24571067388719 15.2901276649968 -10.3636368047092 11.2738658477934 0 0 0 0 0 -0.340876773700405 -9.37618370009548 13.8326463462422 25.1288977489751 0 0 0 0 0 17.0776740165737 -3.79665886171554 9.29957000545345 -17.2708419485036 0 0 4.28780433129069 1.59201655459401 -5.62668672712814 13.5675110668666 5.01739658181368 10.9077210710332 -69.2991129793277 0 0 -16.5730365230037 -9.89210674583885 6.81432921827939 0 0 0 0 0 0
196.429199154675 0 -58.6980885609984 0 13.4271464067014 0 0 17.2544821381569 0 -4.05454461397901 -7.39179563893388 -3.45883762104764 3.58650746341535 -6.27083407003566 4.31226564591042 0.116373477277524 -2.02357858035556 -2.20881837454959 -5.51973887255643 17.0814176146452 -11.1309071524063 12.638021110906 0 0 0 0 0 -1.96673006804959 -6.43354836803506 12.8206062599242 22.2783797705728 0 0 0 0 0 14.1176955400714 -3.64766702560863 8.93916161307736 -16.2853190758044 0 0 5.62219750039086 3.38397582294559 -5.47729832493126 18.2996620256971 3.26905065980176 11.8152582922152 -76.8934910344382 0 0 -20.2625492039358 -7.87942293391273 5.79692357345425 0 0 0 0 0 0
196.961217985302 0 -58.834942188859 0 12.9837641366315 0 0 17.3253190398216 0 -3.67775068507265 -8.40716242460642 -2.88973283245849 3.76978120667428 -6.01205125133489 3.33702483232629 0.29131706359007 -2.60281249187065 -2.55683133926371 -3.74265012819903 18.3085553422538 -11.8978709823367 14.4901882675741 0 0 0 0 0 -3.51397255884987 -4.10794418730899 12.1056575458379 19.5873723224997 0 0 0 0 0 11.0719742252152 -3.27798756727512 8.20580432537384 -14.5876379915573 0 0 6.50882440280518 5.06849789692407 -5.16012338402822 22.7232389063028 1.95337978767336 12.0990358434129 -81.3749830545586 0 0 -21.3960580585097 -5.53016216582127 5.13957681473544 0 0 0 0 0 0
197.491723497957 0 -58.9775562264025 0 12.4923140926097 0 0 17.3875033020973 0 -3.33108713196438 -9.32205162920207 -2.2328231330951 3.70605194412057 -5.61134251822059 2.04575005560223 0.346866490813532 -3.09887116717639 -2.96869349681661 -1.85679546502593 19.2731164670531 -12.7053020820407 16.7824817153004 0 0 0 0 0 -5.07762387859615 -2.03280379162402 11.7005317089853 17.1883657067284 0 0 0 0 0 7.88129830913021 -2.91972508155487 7.24697958846005 -12.457104767718 0 0 7.17964822695074 6.67572177735028 -4.72158057689345 26.7125440494594 1.28290610331453 11.9734189159093 -82.487873587353 0 0 -19.2386542439928 -3.09900655196817 5.08068719033141 0 0 0 0 0 0
198.022357996553 0 -59.1257434941828 0 11.9620548849369 0 0 17.4283814787865 0 -3.14528306874976 -10.0600584865133 -1.58640705033149 3.63038395483653 -5.00770604937462 0.807418738370606 0.34427021734067 -3.48567195215968 -3.47533619357833 0.107183827137131 20.2051368504327 -13.7106853742145 19.2549111571021 0 0 0 0 0 -6.75861942644404 0.0131125834764963 11.5308038036491 15.1358255592479 0 0 0 0 0 4.82775460286041 -2.94592475635842 6.16126792628068 -10.3057309291737 0 0 7.86667294746436 8.41914456136851 -4.15893273699514 30.4207979182905 1.46525773960352 11.8049297180339 -80.0165267305348 0 0 -14.5167961176319 -0.878647437002467 5.64792903661624 0 0 0 0 0 0
198.557010772824 0 -59.2698136724532 0 11.4106451423626 0 0 17.4401479125023 0 -3.08195316832708 -10.4619668654643 -1.13133391379459 3.46621934305856 -4.26565291099171 -0.171592125543216 0.254290302136291 -3.61332633433976 -3.91765776553655 2.30525333525191 21.504494412348 -14.8643401371838 21.9296747077816 0 0 0 0 0 -8.52426647958278 2.24813056845589 11.5912009923242 13.3264478301826 0 0 0 0 0 1.87760070901012 -3.39150871783186 5.20575223198144 -8.18132182369904 0 0 8.63054644440493 10.1370116490435 -3.50255319542848 33.7363788031637 2.28596723006457 11.758004285034 -74.1568528000675 0 0 -8.38112809655443 1.14318166457464 6.64961435276555 0 0 0 0 0 0
